HIERARCHY
ROOT newVegas:Hips
{
	OFFSET 0.000000 96.479958 0.000000
	CHANNELS 6 Xposition Yposition Zposition Xrotation Yrotation Zrotation
	JOINT newVegas:Pelvis
	{
		OFFSET 0.000000 0.000000 0.000000
		CHANNELS 3 Xrotation Yrotation Zrotation
		JOINT newVegas:LeftUpLeg
		{
			OFFSET 18.735201 -5.666702 -4.541200
			CHANNELS 3 Xrotation Yrotation Zrotation
			JOINT newVegas:LeftLeg
			{
				OFFSET -0.021200 -31.938179 0.493100
				CHANNELS 3 Xrotation Yrotation Zrotation
				JOINT newVegas:LeftFoot
				{
					OFFSET 0.021200 -31.938179 -4.336299
					CHANNELS 3 Xrotation Yrotation Zrotation
					JOINT newVegas:LeftToeBase
					{
						OFFSET 0.943001 -26.722000 15.023500
						CHANNELS 3 Xrotation Yrotation Zrotation
						End Site
						{
							OFFSET 0.000000 30.670183 0.000000
						}
					}
				}
				JOINT newVegas:Left_PantLeg
				{
					OFFSET 0.663870 -9.044666 -1.108900
					CHANNELS 3 Xrotation Yrotation Zrotation
					End Site
					{
						OFFSET 1.415995 20.635357 0.000000
					}
				}
			}
		}
		JOINT newVegas:RightUpLeg
		{
			OFFSET -18.735201 -5.666702 -4.541200
			CHANNELS 3 Xrotation Yrotation Zrotation
			JOINT newVegas:RightLeg
			{
				OFFSET 0.018946 -31.938133 0.493100
				CHANNELS 3 Xrotation Yrotation Zrotation
				JOINT newVegas:RightFoot
				{
					OFFSET -0.018946 -31.938126 -4.336299
					CHANNELS 3 Xrotation Yrotation Zrotation
					JOINT newVegas:RightToeBase
					{
						OFFSET -0.943001 -26.722004 15.023500
						CHANNELS 3 Xrotation Yrotation Zrotation
						End Site
						{
							OFFSET 0.000000 30.670187 0.000000
						}
					}
				}
				JOINT newVegas:Right_PantLeg
				{
					OFFSET -0.661674 -9.044716 -1.108900
					CHANNELS 3 Xrotation Yrotation Zrotation
					End Site
					{
						OFFSET -1.415958 20.635269 0.000000
					}
				}
			}
		}
	}
	JOINT newVegas:Spine
	{
		OFFSET 0.000000 10.199997 -0.299500
		CHANNELS 3 Xrotation Yrotation Zrotation
		JOINT newVegas:Spine1
		{
			OFFSET 0.000000 11.900002 -1.516600
			CHANNELS 3 Xrotation Yrotation Zrotation
			JOINT newVegas:Spine2
			{
				OFFSET 0.000000 13.600006 -2.842500
				CHANNELS 3 Xrotation Yrotation Zrotation
				JOINT newVegas:Neck
				{
					OFFSET 0.000000 9.624100 -2.890100
					CHANNELS 3 Xrotation Yrotation Zrotation
					JOINT newVegas:Head
					{
						OFFSET 0.000000 14.068802 -1.351900
						CHANNELS 3 Xrotation Yrotation Zrotation
						JOINT newVegas:Hair_Back
						{
							OFFSET 0.000000 3.231903 -17.524799
							CHANNELS 3 Xrotation Yrotation Zrotation
							End Site
							{
								OFFSET 0.000000 19.849884 0.000000
							}
						}
						JOINT newVegas:Hair_Front
						{
							OFFSET 0.000000 31.260406 4.573800
							CHANNELS 3 Xrotation Yrotation Zrotation
							JOINT newVegas:Hair_Front1
							{
								OFFSET 0.000000 2.284103 11.993300
								CHANNELS 3 Xrotation Yrotation Zrotation
								JOINT newVegas:Hair_Front2
								{
									OFFSET 0.000000 2.284103 11.993300
									CHANNELS 3 Xrotation Yrotation Zrotation
									End Site
									{
										OFFSET 0.000000 12.208862 0.000000
									}
								}
							}
						}
						JOINT newVegas:Jowel
						{
							OFFSET 0.000000 -7.458206 6.864100
							CHANNELS 3 Xrotation Yrotation Zrotation
							End Site
							{
								OFFSET 0.000000 19.849884 0.000000
							}
						}
					}
				}
				JOINT newVegas:LeftShoulder
				{
					OFFSET 15.263000 10.923401 -0.547700
					CHANNELS 3 Xrotation Yrotation Zrotation
					JOINT newVegas:LeftArm
					{
						OFFSET 25.438599 -2.830597 -13.032500
						CHANNELS 3 Xrotation Yrotation Zrotation
						JOINT newVegas:LeftForeArm
						{
							OFFSET 29.960503 0.000000 0.000000
							CHANNELS 3 Xrotation Yrotation Zrotation
							JOINT newVegas:LeftHand
							{
								OFFSET 27.849251 0.000000 0.000000
								CHANNELS 3 Xrotation Yrotation Zrotation
								JOINT newVegas:LeftHandThumb1
								{
									OFFSET 4.487587 -3.305161 6.305391
									CHANNELS 3 Xrotation Yrotation Zrotation
									JOINT newVegas:LeftHandThumb2
									{
										OFFSET 5.480453 -3.164139 3.164143
										CHANNELS 3 Xrotation Yrotation Zrotation
										JOINT newVegas:LeftHandThumb3
										{
											OFFSET 5.159721 -2.978973 2.978967
											CHANNELS 3 Xrotation Yrotation Zrotation
											End Site
											{
												OFFSET 2.494507 5.926697 1.738678
											}
										}
									}
								}
								JOINT newVegas:LeftHandIndex1
								{
									OFFSET 18.578728 -0.527832 5.208049
									CHANNELS 3 Xrotation Yrotation Zrotation
									JOINT newVegas:LeftHandIndex2
									{
										OFFSET 3.192009 0.000000 0.000000
										CHANNELS 3 Xrotation Yrotation Zrotation
										JOINT newVegas:LeftHandIndex3
										{
											OFFSET 3.835129 0.000000 0.000000
											CHANNELS 3 Xrotation Yrotation Zrotation
											End Site
											{
												OFFSET -0.034599 3.816971 0.371180
											}
										}
									}
								}
								JOINT newVegas:LeftHandMiddle1
								{
									OFFSET 18.476105 0.000000 0.000000
									CHANNELS 3 Xrotation Yrotation Zrotation
									JOINT newVegas:LeftHandMiddle2
									{
										OFFSET 3.324875 0.000000 0.000000
										CHANNELS 3 Xrotation Yrotation Zrotation
										JOINT newVegas:LeftHandMiddle3
										{
											OFFSET 4.596550 0.000000 0.000000
											CHANNELS 3 Xrotation Yrotation Zrotation
											End Site
											{
												OFFSET 0.057701 4.578827 0.399218
											}
										}
									}
								}
								JOINT newVegas:LeftHandRing1
								{
									OFFSET 17.732719 0.121887 -4.201567
									CHANNELS 3 Xrotation Yrotation Zrotation
									JOINT newVegas:LeftHandRing2
									{
										OFFSET 2.733170 0.000000 0.000000
										CHANNELS 3 Xrotation Yrotation Zrotation
										JOINT newVegas:LeftHandRing3
										{
											OFFSET 3.178268 0.000000 0.000000
											CHANNELS 3 Xrotation Yrotation Zrotation
											End Site
											{
												OFFSET 0.119102 3.170624 0.185394
											}
										}
									}
								}
								JOINT newVegas:LeftHandPinky1
								{
									OFFSET 15.989624 -0.606689 -7.535461
									CHANNELS 3 Xrotation Yrotation Zrotation
									JOINT newVegas:LeftHandPinky2
									{
										OFFSET 2.538986 0.000000 0.000000
										CHANNELS 3 Xrotation Yrotation Zrotation
										JOINT newVegas:LeftHandPinky3
										{
											OFFSET 2.593102 0.000000 0.000000
											CHANNELS 3 Xrotation Yrotation Zrotation
											End Site
											{
												OFFSET -0.150902 2.584198 0.152708
											}
										}
									}
								}
							}
							JOINT newVegas:Left_Sleeve
							{
								OFFSET 0.267448 -0.649796 0.577675
								CHANNELS 3 Xrotation Yrotation Zrotation
								End Site
								{
									OFFSET 0.000000 15.991241 0.000000
								}
							}
							JOINT newVegas:Left_CapeC
							{
								OFFSET 15.715958 -8.608795 -6.935905
								CHANNELS 3 Xrotation Yrotation Zrotation
								JOINT newVegas:Left_CapeC1
								{
									OFFSET 0.000000 -8.688499 0.000000
									CHANNELS 3 Xrotation Yrotation Zrotation
									End Site
									{
										OFFSET 0.000000 8.688499 0.000000
									}
								}
							}
						}
						JOINT newVegas:Left_CapeB
						{
							OFFSET 26.118385 -8.608795 -7.079235
							CHANNELS 3 Xrotation Yrotation Zrotation
							JOINT newVegas:Left_CapeB1
							{
								OFFSET 0.000000 -8.688499 0.000000
								CHANNELS 3 Xrotation Yrotation Zrotation
								End Site
								{
									OFFSET 0.000000 8.688499 0.000000
								}
							}
						}
						JOINT newVegas:Left_CapeA
						{
							OFFSET 5.115639 -8.608795 -10.395809
							CHANNELS 3 Xrotation Yrotation Zrotation
							JOINT newVegas:Left_CapeA1
							{
								OFFSET 0.000000 -8.688499 0.000000
								CHANNELS 3 Xrotation Yrotation Zrotation
								End Site
								{
									OFFSET 0.000000 8.688499 0.000000
								}
							}
						}
					}
				}
				JOINT newVegas:RightShoulder
				{
					OFFSET -15.263000 10.923401 -0.547700
					CHANNELS 3 Xrotation Yrotation Zrotation
					JOINT newVegas:RightArm
					{
						OFFSET -25.438599 -2.830597 -13.032500
						CHANNELS 3 Xrotation Yrotation Zrotation
						JOINT newVegas:RightForeArm
						{
							OFFSET -29.960503 0.000000 0.000000
							CHANNELS 3 Xrotation Yrotation Zrotation
							JOINT newVegas:RightHand
							{
								OFFSET -27.849251 0.000000 0.000000
								CHANNELS 3 Xrotation Yrotation Zrotation
								JOINT newVegas:RightHandThumb1
								{
									OFFSET -4.487587 -3.305161 6.305391
									CHANNELS 3 Xrotation Yrotation Zrotation
									JOINT newVegas:RightHandThumb2
									{
										OFFSET -5.480453 -3.164139 3.164143
										CHANNELS 3 Xrotation Yrotation Zrotation
										JOINT newVegas:RightHandThumb3
										{
											OFFSET -5.159721 -2.978973 2.978967
											CHANNELS 3 Xrotation Yrotation Zrotation
											End Site
											{
												OFFSET -2.494507 5.926697 1.738678
											}
										}
									}
								}
								JOINT newVegas:RightHandIndex1
								{
									OFFSET -18.578728 -0.527832 5.208049
									CHANNELS 3 Xrotation Yrotation Zrotation
									JOINT newVegas:RightHandIndex2
									{
										OFFSET -3.192009 0.000000 0.000000
										CHANNELS 3 Xrotation Yrotation Zrotation
										JOINT newVegas:RightHandIndex3
										{
											OFFSET -3.835129 0.000000 0.000000
											CHANNELS 3 Xrotation Yrotation Zrotation
											End Site
											{
												OFFSET 0.034599 3.816971 0.371180
											}
										}
									}
								}
								JOINT newVegas:RightHandMiddle1
								{
									OFFSET -18.476105 0.000000 0.000000
									CHANNELS 3 Xrotation Yrotation Zrotation
									JOINT newVegas:RightHandMiddle2
									{
										OFFSET -3.324875 0.000000 0.000000
										CHANNELS 3 Xrotation Yrotation Zrotation
										JOINT newVegas:RightHandMiddle3
										{
											OFFSET -4.596550 0.000000 0.000000
											CHANNELS 3 Xrotation Yrotation Zrotation
											End Site
											{
												OFFSET -0.057701 4.578827 0.399218
											}
										}
									}
								}
								JOINT newVegas:RightHandRing1
								{
									OFFSET -17.732719 0.121887 -4.201567
									CHANNELS 3 Xrotation Yrotation Zrotation
									JOINT newVegas:RightHandRing2
									{
										OFFSET -2.733170 0.000000 0.000000
										CHANNELS 3 Xrotation Yrotation Zrotation
										JOINT newVegas:RightHandRing3
										{
											OFFSET -3.178268 0.000000 0.000000
											CHANNELS 3 Xrotation Yrotation Zrotation
											End Site
											{
												OFFSET -0.119102 3.170624 0.185394
											}
										}
									}
								}
								JOINT newVegas:RightHandPinky1
								{
									OFFSET -15.989624 -0.606689 -7.535461
									CHANNELS 3 Xrotation Yrotation Zrotation
									JOINT newVegas:RightHandPinky2
									{
										OFFSET -2.538986 0.000000 0.000000
										CHANNELS 3 Xrotation Yrotation Zrotation
										JOINT newVegas:RightHandPinky3
										{
											OFFSET -2.593102 0.000000 0.000000
											CHANNELS 3 Xrotation Yrotation Zrotation
											End Site
											{
												OFFSET 0.150902 2.584198 0.152708
											}
										}
									}
								}
							}
							JOINT newVegas:Right_CapeC
							{
								OFFSET -15.715958 -8.608795 -6.935905
								CHANNELS 3 Xrotation Yrotation Zrotation
								JOINT newVegas:Right_CapeC1
								{
									OFFSET 0.000000 -8.688499 0.000000
									CHANNELS 3 Xrotation Yrotation Zrotation
									End Site
									{
										OFFSET 0.000000 8.688499 0.000000
									}
								}
							}
							JOINT newVegas:Right_Sleeve
							{
								OFFSET -0.267448 -0.649994 0.577675
								CHANNELS 3 Xrotation Yrotation Zrotation
								End Site
								{
									OFFSET 0.000000 15.991302 0.000000
								}
							}
						}
						JOINT newVegas:Right_CapeA
						{
							OFFSET -5.115540 -8.608795 -10.395824
							CHANNELS 3 Xrotation Yrotation Zrotation
							JOINT newVegas:Right_CapeA1
							{
								OFFSET 0.000000 -8.688499 0.000000
								CHANNELS 3 Xrotation Yrotation Zrotation
								End Site
								{
									OFFSET 0.000000 8.688499 0.000000
								}
							}
						}
						JOINT newVegas:Right_CapeB
						{
							OFFSET -26.118187 -8.608795 -7.079266
							CHANNELS 3 Xrotation Yrotation Zrotation
							JOINT newVegas:Right_CapeB1
							{
								OFFSET 0.000000 -8.688499 0.000000
								CHANNELS 3 Xrotation Yrotation Zrotation
								End Site
								{
									OFFSET 0.000000 8.688499 0.000000
								}
							}
						}
					}
				}
				JOINT newVegas:Left_Collar
				{
					OFFSET 18.625099 8.655502 8.828100
					CHANNELS 3 Xrotation Yrotation Zrotation
					JOINT newVegas:Left_Collar1
					{
						OFFSET 14.783401 10.540405 -1.259500
						CHANNELS 3 Xrotation Yrotation Zrotation
						End Site
						{
							OFFSET 0.000000 18.199875 0.000000
						}
					}
				}
				JOINT newVegas:Collar_Back
				{
					OFFSET 0.000000 15.630707 -20.132601
					CHANNELS 3 Xrotation Yrotation Zrotation
					End Site
					{
						OFFSET 0.000000 22.523010 0.000000
					}
				}
				JOINT newVegas:Left_Peck
				{
					OFFSET 17.239599 -5.132599 25.482599
					CHANNELS 3 Xrotation Yrotation Zrotation
					End Site
					{
						OFFSET 0.000000 22.523010 0.000000
					}
				}
				JOINT newVegas:Right_Peck
				{
					OFFSET -17.239599 -5.132202 25.482599
					CHANNELS 3 Xrotation Yrotation Zrotation
					End Site
					{
						OFFSET 0.000000 22.523010 0.000000
					}
				}
				JOINT newVegas:Right_Collar
				{
					OFFSET -18.625099 8.655792 8.828100
					CHANNELS 3 Xrotation Yrotation Zrotation
					JOINT newVegas:Right_Collar1
					{
						OFFSET -14.783401 10.539993 -1.259500
						CHANNELS 3 Xrotation Yrotation Zrotation
						End Site
						{
							OFFSET 0.000000 18.199631 0.000000
						}
					}
				}
			}
		}
		JOINT newVegas:Belly
		{
			OFFSET 0.000000 -6.540398 9.014299
			CHANNELS 3 Xrotation Yrotation Zrotation
			End Site
			{
				OFFSET 0.000000 11.566666 0.000000
			}
		}
	}
	JOINT newVegas:ElvisFacialAnim_Joint
	{
		OFFSET 1.000000 -95.330101 -8.825800
		CHANNELS 3 Xrotation Yrotation Zrotation
		End Site
		{
			OFFSET 0.000000 35.315800 0.000000
		}
	}
}
MOTION
Frames: 4
Frame Time: 0.016667
0.255526 88.378044 4.543805 5.443499 2.847077 -2.777247 -0.000000 0.000000 -0.000000 -56.612409 9.595159 -1.976661 100.002965 15.295824 4.145818 1.222855 -0.966805 11.397373 -0.000001 -0.000001 -0.000000 0.000001 0.000001 0.000000 -19.758638 -5.735632 4.478583 47.683016 -0.316767 -1.605433 -24.509174 0.688490 -1.860318 -0.000000 0.000000 0.000000 -0.000000 -0.000000 0.000000 4.932292 1.387325 1.143419 9.857122 2.800250 1.722122 9.857128 2.800249 1.722122 -1.496887 -0.633124 -0.053940 -1.496904 -0.633126 -0.053938 0.000001 -0.000000 -0.000000 -1.496810 -0.633134 -0.053936 -1.496887 -0.633123 -0.053938 -0.000000 0.000000 0.000000 0.000001 -0.000000 -0.000000 1.084062 -1.226536 -9.108711 21.951224 16.129891 -69.744612 5.201937 -103.989869 -6.123325 11.822898 -20.243274 2.841623 -3.690096 -7.086988 -6.632109 5.385702 13.659122 2.745866 -0.000000 -0.000003 -0.000003 -4.456495 -5.493686 -78.091861 -6.126721 -4.186007 -86.100292 0.000001 -0.000001 -0.000002 -4.795472 -3.750258 -81.576952 -5.123600 -5.382131 -79.877567 0.000001 -0.000006 0.000000 -3.664379 4.578240 -85.637424 -3.073172 -4.292447 -82.602996 -0.000001 0.000001 -0.000002 -3.281124 10.951594 -91.300593 -1.701541 -6.201396 -92.126582 0.000001 -0.000002 -0.000000 -0.000000 -0.000003 -0.000001 -0.000000 -0.000003 -0.000001 -0.000000 -0.000003 -0.000000 0.000001 0.000001 0.000000 0.000001 0.000000 0.000001 0.000001 0.000001 0.000000 0.000001 -0.000000 0.000000 0.776463 6.054086 9.529804 5.506730 -10.523598 55.529301 -70.896161 86.710474 75.613281 -0.541032 5.793752 2.436052 1.190249 2.334535 7.237256 4.255911 -11.098855 -2.566627 0.000006 -0.000003 -0.000004 3.425553 2.971803 72.847150 -5.590531 2.959994 92.129020 -0.000000 0.000002 0.000001 -2.182849 2.038039 78.119073 -4.717980 4.324977 85.933096 0.000001 -0.000001 -0.000000 -3.544760 -3.138598 85.503368 -4.845221 5.681179 88.623323 -0.000001 -0.000003 -0.000000 -4.116695 -7.840914 98.141527 -5.448593 9.316774 98.222314 -0.000001 0.000002 -0.000001 0.000001 -0.000000 0.000002 0.000001 -0.000003 0.000001 0.000001 -0.000001 0.000001 -0.000001 0.000000 0.000002 -0.000001 0.000001 0.000002 -0.000001 0.000000 0.000002 -0.000001 0.000001 0.000003 0.000000 -0.000001 -0.000000 0.000000 -0.000001 -0.000000 0.000000 -0.000001 -0.000000 0.000000 -0.000001 -0.000000 0.000000 -0.000001 -0.000000 0.000000 -0.000001 -0.000000 0.000000 -0.000001 -0.000000 0.000000 -0.000000 0.000000 -0.000000 0.000000 -0.000000 
0.884586 88.798515 14.975395 3.090593 0.461089 -0.069592 0.000000 -0.000000 0.000000 -65.066882 7.025775 -2.231732 93.690634 15.317987 4.215509 11.140826 -0.067329 13.219986 0.000002 -0.000000 0.000000 -0.000002 -0.000001 0.000001 -14.168007 -5.037667 1.453694 51.172409 0.824865 -3.389920 -19.452799 0.595209 -0.427674 0.000002 -0.000000 0.000000 0.000001 0.000000 -0.000000 4.792314 1.686191 0.945455 9.626594 3.123980 0.274439 9.626594 3.123980 0.274438 -0.483588 -0.670304 -0.297307 -0.483578 -0.670306 -0.297305 -0.000001 0.000001 -0.000000 -0.483593 -0.670305 -0.297307 -0.483502 -0.670309 -0.297305 0.000001 -0.000000 0.000000 -0.000001 0.000001 -0.000000 1.017755 -3.352018 -7.689894 20.366321 21.388596 -69.829470 3.146190 -98.519851 -7.266124 11.665530 -20.398012 3.541810 -3.674526 -7.031702 -6.573690 5.390392 13.668768 2.745668 -0.000002 0.000003 -0.000003 -4.415709 -5.486243 -77.672604 -6.076170 -4.184117 -85.682237 0.000002 -0.000003 -0.000001 -4.761775 -3.747137 -81.225067 -5.085685 -5.375468 -79.524787 0.000003 -0.000001 -0.000000 -3.642442 4.581545 -85.331814 -3.053937 -4.287339 -82.294053 0.000000 -0.000001 0.000000 -3.262881 10.951653 -90.969411 -1.695755 -6.201315 -91.857718 0.000000 -0.000003 -0.000002 0.000002 0.000001 -0.000000 0.000002 0.000001 -0.000000 0.000002 0.000001 -0.000001 0.000001 -0.000002 0.000000 0.000001 -0.000003 0.000001 0.000001 -0.000002 0.000000 0.000001 -0.000003 0.000001 0.471251 6.581697 7.077384 2.677231 -8.531780 52.506325 -124.821161 83.187353 129.906237 0.046011 8.442203 -4.547151 1.063726 2.389918 7.088549 4.210536 -10.996079 -2.558753 0.000001 -0.000002 -0.000001 3.285725 2.958053 72.384473 -5.532251 2.967158 91.535060 -0.000001 0.000001 -0.000000 -2.157729 2.014430 77.565377 -4.667193 4.322087 85.362215 0.000000 0.000000 0.000000 -3.433801 -3.143500 84.861385 -4.797957 5.679369 88.073971 -0.000001 0.000001 0.000000 -3.951810 -7.817822 97.410758 -5.399227 9.319816 97.590870 0.000001 0.000001 0.000001 -0.000001 -0.000001 0.000002 0.000000 0.000001 0.000000 -0.000001 -0.000001 0.000002 0.000003 -0.000001 -0.000001 0.000003 0.000000 -0.000002 0.000003 -0.000001 -0.000001 0.000003 -0.000000 -0.000000 -0.000002 0.000000 -0.000000 -0.000002 0.000000 -0.000000 -0.000002 0.000000 -0.000000 -0.000002 0.000000 -0.000000 -0.000002 0.000000 -0.000000 -0.000002 0.000000 -0.000000 -0.000002 0.000000 -0.000000 -0.000000 -0.000000 -0.000000 0.000000 -0.000000 0.000000 
1.512585 88.681122 25.602341 0.125849 -1.733963 3.008453 0.000000 0.000000 -0.000000 -69.148070 4.613327 -3.746603 86.310553 15.984581 4.285738 16.950422 0.496232 13.647076 -0.000003 -0.000000 0.000000 0.000003 -0.000000 -0.000000 -11.330032 -3.599123 -3.158031 53.405406 2.128219 -4.205108 -0.124087 0.717913 1.688114 -0.000000 0.000000 0.000000 0.000001 -0.000000 0.000000 4.711546 1.812208 0.377608 9.488553 3.163841 -0.986325 9.488547 3.163836 -0.986325 0.532491 -0.672809 -0.527621 0.532500 -0.672811 -0.527617 -0.000000 -0.000001 0.000000 0.532500 -0.672799 -0.527624 0.532506 -0.672824 -0.527619 -0.000002 0.000000 -0.000000 -0.000000 -0.000001 0.000000 0.950474 -5.646697 -7.066024 19.644679 26.553706 -68.303381 -44.944110 -91.993332 -56.510304 12.433755 -20.263191 4.153228 -3.631294 -6.892556 -6.427403 5.402856 13.694239 2.745119 -0.000001 -0.000003 -0.000003 -4.314009 -5.463047 -76.623036 -5.949281 -4.173838 -84.635736 0.000002 -0.000000 -0.000002 -4.676724 -3.733412 -80.346302 -4.991192 -5.357332 -78.643809 -0.000002 0.000001 -0.000000 -3.588980 4.586285 -84.569988 -3.007769 -4.280713 -81.524052 -0.000003 0.000001 -0.000000 -3.217708 10.951151 -90.145069 -1.681587 -6.201997 -91.189268 0.000000 0.000002 -0.000001 -0.000000 0.000002 -0.000001 -0.000000 0.000002 -0.000001 -0.000000 0.000002 -0.000001 -0.000000 0.000003 -0.000000 0.000000 0.000003 0.000000 -0.000000 0.000003 -0.000000 0.000000 0.000002 -0.000001 0.215430 7.052324 4.417729 -0.696332 -7.601966 49.506608 -136.724186 80.118481 141.096655 -1.682945 8.719115 -8.099246 0.735788 2.516800 6.699297 4.098479 -10.742304 -2.538922 -0.000000 0.000000 0.000001 2.946275 2.950503 71.140641 -5.372429 2.971043 89.955210 0.000001 0.000000 0.000000 -2.097292 1.952060 76.105383 -4.531267 4.309465 83.837539 0.000001 0.000000 -0.000001 -3.153775 -3.176310 83.187210 -4.671698 5.673732 86.598411 -0.000000 0.000001 0.000000 -3.529611 -7.793287 95.484221 -5.273511 9.333609 95.921551 0.000001 0.000002 0.000000 -0.000002 -0.000001 -0.000001 -0.000003 0.000000 -0.000001 -0.000002 -0.000001 -0.000001 0.000003 0.000000 -0.000002 0.000002 0.000000 -0.000003 0.000003 0.000000 -0.000002 0.000002 -0.000000 -0.000001 -0.000003 0.000001 0.000000 -0.000003 0.000001 0.000000 -0.000003 0.000001 0.000000 -0.000003 0.000001 0.000000 -0.000003 0.000001 0.000000 -0.000003 0.000001 0.000000 -0.000003 0.000001 0.000000 -0.000001 0.000000 -0.000000 0.000000 0.000000 -0.000000 
1.653683 87.372993 35.157162 -3.228330 -4.318058 6.093834 0.000000 -0.000000 0.000000 -71.565008 2.506889 -5.313141 79.551493 18.155334 4.799312 18.512555 0.558881 13.204351 -0.000000 -0.000000 -0.000001 0.000000 0.000000 -0.000000 -11.479094 0.389771 -7.214937 54.064943 2.868454 -4.486167 28.407834 0.658692 -0.339677 -0.000000 0.000000 -0.000000 0.000003 0.000000 -0.000000 4.897409 1.805412 -0.859795 9.838374 3.169747 -2.175855 9.838367 3.169749 -2.175856 1.482048 -0.657509 -0.739145 1.482053 -0.657507 -0.739146 0.000001 0.000000 -0.000000 1.482058 -0.657507 -0.739146 1.482146 -0.657509 -0.739144 -0.000002 -0.000000 0.000000 0.000001 0.000000 -0.000000 0.873605 -7.727234 -6.705416 19.528653 31.328216 -66.134058 -131.666704 -98.266724 -145.356001 13.514973 -20.043409 4.561847 -3.569431 -6.695148 -6.222068 5.420894 13.731107 2.744349 0.000003 0.000000 -0.000004 -4.171546 -5.426555 -75.144163 -5.770810 -4.154594 -83.161064 0.000002 -0.000000 0.000002 -4.557161 -3.710909 -79.109327 -4.858705 -5.329184 -77.403645 -0.000001 0.000001 -0.000002 -3.514143 4.593285 -83.498462 -2.943358 -4.271655 -80.441091 0.000003 0.000001 -0.000003 -3.154217 10.951237 -88.986239 -1.661724 -6.202882 -90.250240 0.000001 0.000000 -0.000001 0.000000 0.000001 0.000002 0.000000 0.000001 0.000002 -0.000000 0.000001 0.000001 -0.000002 -0.000003 0.000000 -0.000002 -0.000003 -0.000003 -0.000002 -0.000003 0.000000 -0.000002 -0.000004 0.000001 -0.010819 7.405823 1.517426 -3.959893 -7.479182 46.796669 -143.758598 76.454849 146.945141 -4.558721 7.638975 -9.646834 0.277072 2.694361 6.152284 3.942573 -10.389852 -2.510515 -0.000000 0.000000 -0.000002 2.483114 2.965527 69.371411 -5.146210 2.966108 87.716752 -0.000001 -0.000000 -0.000001 -2.014746 1.861884 74.039715 -4.339297 4.284742 81.675006 -0.000001 -0.000001 0.000002 -2.765318 -3.243708 80.825132 -4.492709 5.660394 84.502875 0.000001 0.000001 -0.000000 -2.938737 -7.797540 92.760888 -5.095219 9.348786 93.559276 0.000002 -0.000000 -0.000000 -0.000001 0.000000 -0.000001 -0.000001 -0.000000 -0.000000 -0.000001 0.000000 -0.000001 0.000001 0.000001 0.000001 0.000001 0.000000 0.000003 0.000001 0.000001 0.000001 0.000001 0.000000 0.000004 0.000000 0.000000 -0.000000 0.000000 0.000000 -0.000000 0.000000 0.000000 -0.000000 0.000000 0.000000 -0.000000 0.000000 0.000000 -0.000000 0.000000 0.000000 -0.000000 0.000000 0.000000 -0.000000 -0.000000 -0.000000 -0.000000 0.000000 -0.000000 0.000000 
